# xmcd CD database file
#
# Track frame offsets:
#	150
#	16415
#	33292
#	50610
#	65145
#	78870
#	94962
#	108957
#	123810
#	139797
#	158437
#	171800
#	186950
#	206095
#	223100
#	240575
#	258837
#	275312
#	293772
#
# Disc length: 4184 seconds
#
# Revision: 2
# Processed by: cddbd v1.5.2PL0 Copyright (c) Steve Scherf et al.
# Submitted via: CDex 1.70beta2
#
DISCID=0a105613
DTITLE=Various Artist - 精選盤 昭和の流行歌 Vol 15 (函館の女)
DYEAR=1900
DGENRE=歌謡曲
TTITLE0=涙を抱いた渡り鳥 - 水前寺  清子
TTITLE1=兄弟仁義 - 北島  三郎
TTITLE2=下町育ち - 笹  みどり
TTITLE3=函館の女 - 北島  三郎
TTITLE4=ラブユー東京 - 黒沢  明 と ロス・プリモス
TTITLE5=柳ヶ瀬ブルース - 美川  憲一
TTITLE6=星のフラメンコ - 西郷  輝彦
TTITLE7=いっぽんどっこの歌 - 水前寺  清子
TTITLE8=花はおそかった - 美樹  克彦
TTITLE9=たそがれの銀座 - 黒沢  明 と ロス・プリモス
TTITLE10=三百六十五歩のマーチ - 水前寺  清子
TTITLE11=男はつらいよ - 渥美  清
TTITLE12=ついて来るかい - 小林  旭
TTITLE13=宗右衛門町ブルース - 平和  勝次 と ダークホース
TTITLE14=昔の名前で出ています - 小林  旭
TTITLE15=与  作 - 北島  三郎
TTITLE16=兄弟船 - 鳥羽  一郎
TTITLE17=祝い船 - 門脇  睦男
TTITLE18=命くれない - 瀬川  瑛子
EXTD=
EXTT0=
EXTT1=
EXTT2=
EXTT3=
EXTT4=
EXTT5=
EXTT6=
EXTT7=
EXTT8=
EXTT9=
EXTT10=
EXTT11=
EXTT12=
EXTT13=
EXTT14=
EXTT15=
EXTT16=
EXTT17=
EXTT18=
PLAYORDER=
